# xmcd
#
# Track frame offsets:
#	150
#	13447
#	25134
#	38209
#	45533
#	60916
#	69797
#	79986
#
# Disc length: 1229 seconds
#
# Revision: 0
# Processed by: cddbd v1.5.2PL0 Copyright (c) Steve Scherf et al.
# Submitted via: audiograbber 1.83.01
#
DISCID=5d04cb08
DTITLE=Reverend Peyton's Big Damn Band, The - The Gospel Album
DYEAR=2007
DGENRE=Gospel
TTITLE0=Blow That Horn
TTITLE1=Down By the Riverside
TTITLE2=Glory Glory
TTITLE3=Tell all the World
TTITLE4=I Shall Not Be Moved
TTITLE5=Rock Island Line
TTITLE6=Let You Light Shine
TTITLE7=Amazing Grace
EXTD=
EXTT0=
EXTT1=
EXTT2=
EXTT3=
EXTT4=
EXTT5=
EXTT6=
EXTT7=
PLAYORDER=
